<?xml version="1.0" encoding="UTF-8"?>
<svg width="1440px" height="810px" viewBox="0 0 1440 810" version="1.1" xmlns="http://www.w3.org/2000/svg" xmlns:xlink="http://www.w3.org/1999/xlink">
    <!-- Generator: Sketch 53.2 (72643) - https://sketchapp.com -->
    <title>0</title>
    <desc>Created with Sketch.</desc>
    <g id="0" stroke="none" stroke-width="1" fill="none" fill-rule="evenodd">
        <rect id="background" fill="#F5FBFA" x="0" y="0" width="1440" height="1024"></rect>
        <rect id="top" stroke="#BFE6DB" stroke-width="2" fill="#FFFFFF" x="-1" y="-1" width="1442" height="62"></rect>
        <rect id="right" fill="#F5FBFA" x="0" y="62" width="1440" height="748"></rect>
        <g id="Group-4" transform="translate(533.000000, 19.000000)">
            <g id="assumption" transform="translate(4.000000, 0.000000)">
                <text id="Assumptions" font-family="HindMadurai-Bold, Hind Madurai" font-size="16" font-weight="bold" letter-spacing="-0.5079364" fill="#889996">
                    <tspan x="32" y="16">Assumptions</tspan>
                </text>
                <path d="M0,6.25 L1.5,6.25 L0,6.25 Z M6,6.25 L15,6.25 L6,6.25 Z M3.75,8.5 C2.50735931,8.5 1.5,7.49264069 1.5,6.25 C1.5,5.00735931 2.50735931,4 3.75,4 C4.99264069,4 6,5.00735931 6,6.25 C6,7.49264069 4.99264069,8.5 3.75,8.5 Z M0,16.75 L1.5,16.75 L0,16.75 Z M6,16.75 L15,16.75 L6,16.75 Z M3.75,19 C2.50735931,19 1.5,17.9926407 1.5,16.75 C1.5,15.5073593 2.50735931,14.5 3.75,14.5 C4.99264069,14.5 6,15.5073593 6,16.75 C6,17.9926407 4.99264069,19 3.75,19 Z M0,11.5 L9,11.5 L0,11.5 Z M13.5,11.5 L15,11.5 L13.5,11.5 Z M11.25,13.75 C10.0073593,13.75 9,12.7426407 9,11.5 C9,10.2573593 10.0073593,9.25 11.25,9.25 C12.4926407,9.25 13.5,10.2573593 13.5,11.5 C13.5,12.7426407 12.4926407,13.75 11.25,13.75 Z" id="Icon" stroke="#889996" stroke-width="2" stroke-linecap="round" stroke-linejoin="round"></path>
            </g>
            <rect id="revenue" fill="#FFFFFF" x="0" y="36" width="129" height="5"></rect>
        </g>
        <g id="Group-3" transform="translate(370.000000, 19.000000)">
            <rect id="revenue" fill="#FFFFFF" x="0" y="36" width="129" height="5"></rect>
            <g id="expense" transform="translate(16.000000, 0.000000)">
                <text id="Expenses" font-family="HindMadurai-Bold, Hind Madurai" font-size="16" font-weight="bold" letter-spacing="-0.5079364" fill="#889996">
                    <tspan x="32" y="16">Expenses</tspan>
                </text>
                <path d="M0,6.25 L1.5,6.25 L0,6.25 Z M6,6.25 L15,6.25 L6,6.25 Z M3.75,8.5 C2.50735931,8.5 1.5,7.49264069 1.5,6.25 C1.5,5.00735931 2.50735931,4 3.75,4 C4.99264069,4 6,5.00735931 6,6.25 C6,7.49264069 4.99264069,8.5 3.75,8.5 Z M0,16.75 L1.5,16.75 L0,16.75 Z M6,16.75 L15,16.75 L6,16.75 Z M3.75,19 C2.50735931,19 1.5,17.9926407 1.5,16.75 C1.5,15.5073593 2.50735931,14.5 3.75,14.5 C4.99264069,14.5 6,15.5073593 6,16.75 C6,17.9926407 4.99264069,19 3.75,19 Z M0,11.5 L9,11.5 L0,11.5 Z M13.5,11.5 L15,11.5 L13.5,11.5 Z M11.25,13.75 C10.0073593,13.75 9,12.7426407 9,11.5 C9,10.2573593 10.0073593,9.25 11.25,9.25 C12.4926407,9.25 13.5,10.2573593 13.5,11.5 C13.5,12.7426407 12.4926407,13.75 11.25,13.75 Z" id="Icon" stroke="#889996" stroke-width="2" stroke-linecap="round" stroke-linejoin="round"></path>
            </g>
        </g>
        <text id="Finulate" font-family="Montserrat-Bold, Montserrat" font-size="28" font-weight="bold" letter-spacing="-0.6913579" fill="#3ABC96">
            <tspan x="62" y="40">Finulate</tspan>
        </text>
        <path d="M30,25 L45,25 L30,25 Z M30,35.9223301 L45,35.9223301 L30,35.9223301 Z M30,30.461165 L45,30.461165 L30,30.461165 Z" id="menu" stroke="#889996" stroke-width="2" stroke-linecap="round" stroke-linejoin="round"></path>
        <g id="user" transform="translate(1313.000000, 15.000000)">
            <text id="User-Name" font-family="HindMadurai-Bold, Hind Madurai" font-size="14" font-weight="bold" letter-spacing="-0.345679" fill="#889996">
                <tspan x="32" y="16">User Name</tspan>
            </text>
            <path d="M10.5,15.500909 C13.5375661,15.500909 16,13.0384751 16,10.000909 C16,6.96334288 13.5375661,4.500909 10.5,4.500909 C7.46243388,4.500909 5,6.96334288 5,10.000909 C5,13.0384751 7.46243388,15.500909 10.5,15.500909 Z M3,20.967973 C3.15,18.750909 6.01060486,15.500909 10.5053024,15.500909 C15,15.500909 18,18.750909 18,21.000909 M18.6136364,1.42108547e-14 C19.9315886,1.37919009e-14 21,1.06841176 21,2.386364 L21,18.6145454 C21,19.8797796 19.974325,21.000909 18.7090908,21.000909 L2.29090918,21.000909 C1.02567498,21.000909 4.45148968e-14,19.8797796 4.4408921e-14,18.6145454 L4.4408921e-14,2.290909 C4.92838094e-14,1.0256748 1.02567498,5.15159631e-14 2.29090918,5.15159631e-14 L18.6136364,1.42108547e-14 Z" stroke="#889996" stroke-width="2" stroke-linecap="round" stroke-linejoin="round"></path>
        </g>
        <g id="Group-6" transform="translate(62.000000, 72.000000)">
            <rect id="Rectangle" stroke="#3ABC96" stroke-width="3" fill="#FFFFFF" x="1.5" y="1.5" width="197" height="197"></rect>
            <path d="M99,100 C85.1928813,100 74,88.8071187 74,75 C74,61.1928813 85.1928813,50 99,50 C112.807119,50 124,61.1928813 124,75 C124,88.8071187 112.807119,100 99,100 Z M99,75 L85.3636364,75 L99,75 L99,61.3636364 L99,75 Z M99,75 L112.636364,75 L99,75 L99,88.6363636 L99,75 Z" id="Icon" stroke="#3ABC96" stroke-width="3" stroke-linecap="round" stroke-linejoin="round"></path>
            <text id="New-Model" font-family="HindMadurai-Bold, Hind Madurai" font-size="28" font-weight="bold" letter-spacing="-0.6913579" fill="#3ABC96">
                <tspan x="30" y="151">New Model</tspan>
            </text>
        </g>
        <g id="revenue" transform="translate(217.000000, 0.000000)">
            <rect id="Rectangle" fill="#FFFFFF" x="0" y="0" width="129" height="60"></rect>
            <text id="Revenues" font-family="HindMadurai-Bold, Hind Madurai" font-size="16" font-weight="bold" letter-spacing="-0.5079364" fill="#889996">
                <tspan x="47" y="35">Revenues</tspan>
            </text>
            <path d="M15,25.25 L16.5,25.25 L15,25.25 Z M21,25.25 L30,25.25 L21,25.25 Z M18.75,27.5 C17.5073593,27.5 16.5,26.4926407 16.5,25.25 C16.5,24.0073593 17.5073593,23 18.75,23 C19.9926407,23 21,24.0073593 21,25.25 C21,26.4926407 19.9926407,27.5 18.75,27.5 Z M15,35.75 L16.5,35.75 L15,35.75 Z M21,35.75 L30,35.75 L21,35.75 Z M18.75,38 C17.5073593,38 16.5,36.9926407 16.5,35.75 C16.5,34.5073593 17.5073593,33.5 18.75,33.5 C19.9926407,33.5 21,34.5073593 21,35.75 C21,36.9926407 19.9926407,38 18.75,38 Z M15,30.5 L24,30.5 L15,30.5 Z M28.5,30.5 L30,30.5 L28.5,30.5 Z M26.25,32.75 C25.0073593,32.75 24,31.7426407 24,30.5 C24,29.2573593 25.0073593,28.25 26.25,28.25 C27.4926407,28.25 28.5,29.2573593 28.5,30.5 C28.5,31.7426407 27.4926407,32.75 26.25,32.75 Z" id="Icon" stroke="#889996" stroke-width="2" stroke-linecap="round" stroke-linejoin="round"></path>
        </g>
    </g>
</svg>