<?xml version="1.0" encoding="UTF-8"?>
<svg width="129px" height="60px" viewBox="0 0 129 60" version="1.1" xmlns="http://www.w3.org/2000/svg" xmlns:xlink="http://www.w3.org/1999/xlink">
    <!-- Generator: Sketch 53.2 (72643) - https://sketchapp.com -->
    <title>Group 8</title>
    <desc>Created with Sketch.</desc>
    <g id="Page-1" stroke="none" stroke-width="1" fill="none" fill-rule="evenodd">
        <g id="Group-8">
            <rect id="Rectangle" fill="#FFFFFF" x="0" y="0" width="129" height="60"></rect>
            <g id="Group-4" transform="translate(0.000000, 19.000000)">
                <g id="assumption" transform="translate(4.000000, 0.000000)">
                    <text id="Assumptions" font-family="HindMadurai-Bold, Hind Madurai" font-size="16" font-weight="bold" letter-spacing="-0.5079364" fill="#889996">
                        <tspan x="32" y="16">Assumptions</tspan>
                    </text>
                    <path d="M0,6.25 L1.5,6.25 L0,6.25 Z M6,6.25 L15,6.25 L6,6.25 Z M3.75,8.5 C2.50735931,8.5 1.5,7.49264069 1.5,6.25 C1.5,5.00735931 2.50735931,4 3.75,4 C4.99264069,4 6,5.00735931 6,6.25 C6,7.49264069 4.99264069,8.5 3.75,8.5 Z M0,16.75 L1.5,16.75 L0,16.75 Z M6,16.75 L15,16.75 L6,16.75 Z M3.75,19 C2.50735931,19 1.5,17.9926407 1.5,16.75 C1.5,15.5073593 2.50735931,14.5 3.75,14.5 C4.99264069,14.5 6,15.5073593 6,16.75 C6,17.9926407 4.99264069,19 3.75,19 Z M0,11.5 L9,11.5 L0,11.5 Z M13.5,11.5 L15,11.5 L13.5,11.5 Z M11.25,13.75 C10.0073593,13.75 9,12.7426407 9,11.5 C9,10.2573593 10.0073593,9.25 11.25,9.25 C12.4926407,9.25 13.5,10.2573593 13.5,11.5 C13.5,12.7426407 12.4926407,13.75 11.25,13.75 Z" id="Icon" stroke="#889996" stroke-width="2" stroke-linecap="round" stroke-linejoin="round"></path>
                </g>
                <rect id="revenue" fill="#FFFFFF" x="0" y="36" width="129" height="5"></rect>
            </g>
        </g>
    </g>
</svg>