<?xml version="1.0" encoding="UTF-8"?>
<svg width="129px" height="60px" viewBox="0 0 129 60" version="1.1" xmlns="http://www.w3.org/2000/svg" xmlns:xlink="http://www.w3.org/1999/xlink">
    <!-- Generator: Sketch 53.2 (72643) - https://sketchapp.com -->
    <title>revenue_highlight</title>
    <desc>Created with Sketch.</desc>
    <g id="Page-1" stroke="none" stroke-width="1" fill="none" fill-rule="evenodd">
        <g id="1-1" transform="translate(-217.000000, 0.000000)">
            <g id="revenue_highlight" transform="translate(217.000000, 0.000000)">
                <rect id="Rectangle" fill="#FFFFFF" x="0" y="0" width="129" height="60"></rect>
                <text id="Revenues" font-family="HindMadurai-Bold, Hind Madurai" font-size="16" font-weight="bold" letter-spacing="-0.507936418" fill="#3ABC96">
                    <tspan x="47" y="35">Revenues</tspan>
                </text>
                <path d="M15,25.25 L16.5,25.25 L15,25.25 Z M21,25.25 L30,25.25 L21,25.25 Z M18.75,27.5 C17.5073593,27.5 16.5,26.4926407 16.5,25.25 C16.5,24.0073593 17.5073593,23 18.75,23 C19.9926407,23 21,24.0073593 21,25.25 C21,26.4926407 19.9926407,27.5 18.75,27.5 Z M15,35.75 L16.5,35.75 L15,35.75 Z M21,35.75 L30,35.75 L21,35.75 Z M18.75,38 C17.5073593,38 16.5,36.9926407 16.5,35.75 C16.5,34.5073593 17.5073593,33.5 18.75,33.5 C19.9926407,33.5 21,34.5073593 21,35.75 C21,36.9926407 19.9926407,38 18.75,38 Z M15,30.5 L24,30.5 L15,30.5 Z M28.5,30.5 L30,30.5 L28.5,30.5 Z M26.25,32.75 C25.0073593,32.75 24,31.7426407 24,30.5 C24,29.2573593 25.0073593,28.25 26.25,28.25 C27.4926407,28.25 28.5,29.2573593 28.5,30.5 C28.5,31.7426407 27.4926407,32.75 26.25,32.75 Z" id="Icon" stroke="#3ABC96" stroke-width="2" stroke-linecap="round" stroke-linejoin="round"></path>
                <rect id="revenue" fill="#3ABC96" x="0" y="55" width="129" height="5"></rect>
            </g>
        </g>
    </g>
</svg>